<svg class="railroad-diagram" width="810" height="259" viewBox="0 0 810 259"><g transform="translate(.5 .5)"><path d="M 20 21 v 20 m 10 -20 v 20 m -10 -10 h 20.5"></path><path d="M40 31h10"></path><g><path d="M50 31h0"></path><path d="M50 31h10"></path><g><path d="M60 31h86"></path><path d="M664 31h86"></path><g class="terminal"><path d="M146 31h0"></path><path d="M214 31h0"></path><rect x="146" y="20" width="68" height="22" rx="10" ry="10"></rect><a xmlns:xlink="http://www.w3.org/1999/xlink" xlink:href="/doc/create"><text x="180" y="35">CREATE</text></a></g><path d="M214 31h10"></path><g><path d="M224 31h0"></path><path d="M356 31h0"></path><path d="M224 31h20"></path><g><path d="M244 31h92"></path></g><path d="M336 31h20"></path><path d="M224 31a10 10 0 0 1 10 10v0a10 10 0 0 0 10 10"></path><g class="terminal"><path d="M244 51h20"></path><path d="M316 51h20"></path><rect x="264" y="40" width="52" height="22" rx="10" ry="10"></rect><text x="290" y="55">TEMP</text></g><path d="M336 51a10 10 0 0 0 10 -10v0a10 10 0 0 1 10 -10"></path><path d="M224 31a10 10 0 0 1 10 10v30a10 10 0 0 0 10 10"></path><g class="terminal"><path d="M244 81h0"></path><path d="M336 81h0"></path><rect x="244" y="70" width="92" height="22" rx="10" ry="10"></rect><text x="290" y="85">TEMPORARY</text></g><path d="M336 81a10 10 0 0 0 10 -10v-30a10 10 0 0 1 10 -10"></path></g><path d="M356 31h10"></path><g class="terminal"><path d="M366 31h0"></path><path d="M426 31h0"></path><rect x="366" y="20" width="60" height="22" rx="10" ry="10"></rect><text x="396" y="35">TABLE</text></g><path d="M426 31h10"></path><g><path d="M436 31h0"></path><path d="M664 31h0"></path><path d="M436 31h20"></path><g><path d="M456 31h188"></path></g><path d="M644 31h20"></path><path d="M436 31a10 10 0 0 1 10 10v0a10 10 0 0 0 10 10"></path><g><path d="M456 51h0"></path><path d="M644 51h0"></path><g class="terminal"><path d="M456 51h0"></path><path d="M492 51h0"></path><rect x="456" y="40" width="36" height="22" rx="10" ry="10"></rect><a xmlns:xlink="http://www.w3.org/1999/xlink" xlink:href="javascript:doc('if')"><text x="474" y="55">IF</text></a></g><path d="M492 51h10"></path><path d="M502 51h10"></path><g class="terminal"><path d="M512 51h0"></path><path d="M556 51h0"></path><rect x="512" y="40" width="44" height="22" rx="10" ry="10"></rect><text x="534" y="55">NOT</text></g><path d="M556 51h10"></path><path d="M566 51h10"></path><g class="terminal"><path d="M576 51h0"></path><path d="M644 51h0"></path><rect x="576" y="40" width="68" height="22" rx="10" ry="10"></rect><text x="610" y="55">EXISTS</text></g></g><path d="M644 51a10 10 0 0 0 10 -10v0a10 10 0 0 1 10 -10"></path></g></g><path d="M750 31a10 10 0 0 1 10 10v49a10 10 0 0 1 -10 10h-690a10 10 0 0 0 -10 10v0a10 10 0 0 0 10 10"></path><g><path d="M60 120h207"></path><path d="M543 120h207"></path><g class="non-terminal"><path d="M267 120h0"></path><path d="M375 120h0"></path><rect x="267" y="109" width="108" height="22"></rect><text x="321" y="124">schema-name</text></g><path d="M375 120h10"></path><path d="M385 120h10"></path><g class="terminal"><path d="M395 120h0"></path><path d="M423 120h0"></path><rect x="395" y="109" width="28" height="22" rx="10" ry="10"></rect><text x="409" y="124">.</text></g><path d="M423 120h10"></path><path d="M433 120h10"></path><g class="non-terminal"><path d="M443 120h0"></path><path d="M543 120h0"></path><rect x="443" y="109" width="100" height="22"></rect><text x="493" y="124">table-name</text></g></g><path d="M750 120a10 10 0 0 1 10 10v0a10 10 0 0 1 -10 10h-690a10 10 0 0 0 -10 10v8a10 10 0 0 0 10 10"></path><g><path d="M60 168h10"></path><path d="M740 168h10"></path><g><path d="M70 168h0"></path><path d="M740 168h0"></path><path d="M70 168h20"></path><g><path d="M90 168h0"></path><path d="M720 168h0"></path><g class="terminal"><path d="M90 168h0"></path><path d="M118 168h0"></path><rect x="90" y="157" width="28" height="22" rx="10" ry="10"></rect><text x="104" y="172">(</text></g><path d="M118 168h10"></path><path d="M128 168h10"></path><g><path d="M138 168h0"></path><path d="M258 168h0"></path><path d="M138 168h10"></path><g class="non-terminal"><path d="M148 168h0"></path><path d="M248 168h0"></path><rect x="148" y="157" width="100" height="22"></rect><text x="198" y="172">column-def</text></g><path d="M248 168h10"></path><path d="M148 168a10 10 0 0 0 -10 10v10a10 10 0 0 0 10 10"></path><g class="terminal"><path d="M148 198h36"></path><path d="M212 198h36"></path><rect x="184" y="187" width="28" height="22" rx="10" ry="10"></rect><text x="198" y="202">,</text></g><path d="M248 198a10 10 0 0 0 10 -10v-10a10 10 0 0 0 -10 -10"></path></g><path d="M258 168h10"></path><g><path d="M268 168h0"></path><path d="M476 168h0"></path><path d="M268 168a10 10 0 0 0 10 -10v0a10 10 0 0 1 10 -10"></path><g><path d="M288 148h168"></path></g><path d="M456 148a10 10 0 0 1 10 10v0a10 10 0 0 0 10 10"></path><path d="M268 168h20"></path><g><path d="M288 168h0"></path><path d="M456 168h0"></path><path d="M288 168h10"></path><g class="terminal"><path d="M298 168h60"></path><path d="M386 168h60"></path><rect x="358" y="157" width="28" height="22" rx="10" ry="10"></rect><text x="372" y="172">,</text></g><path d="M446 168h10"></path><path d="M298 168a10 10 0 0 0 -10 10v10a10 10 0 0 0 10 10"></path><g class="non-terminal"><path d="M298 198h0"></path><path d="M446 198h0"></path><rect x="298" y="187" width="148" height="22"></rect><text x="372" y="202">table-constraint</text></g><path d="M446 198a10 10 0 0 0 10 -10v-10a10 10 0 0 0 -10 -10"></path></g><path d="M456 168h20"></path></g><path d="M476 168h10"></path><g class="terminal"><path d="M486 168h0"></path><path d="M514 168h0"></path><rect x="486" y="157" width="28" height="22" rx="10" ry="10"></rect><text x="500" y="172">)</text></g><path d="M514 168h10"></path><g><path d="M524 168h0"></path><path d="M720 168h0"></path><path d="M524 168a10 10 0 0 0 10 -10v0a10 10 0 0 1 10 -10"></path><g><path d="M544 148h156"></path></g><path d="M700 148a10 10 0 0 1 10 10v0a10 10 0 0 0 10 10"></path><path d="M524 168h20"></path><g><path d="M544 168h0"></path><path d="M700 168h0"></path><g class="terminal"><path d="M544 168h0"></path><path d="M620 168h0"></path><rect x="544" y="157" width="76" height="22" rx="10" ry="10"></rect><text x="582" y="172">WITHOUT</text></g><path d="M620 168h10"></path><path d="M630 168h10"></path><g class="terminal"><path d="M640 168h0"></path><path d="M700 168h0"></path><rect x="640" y="157" width="60" height="22" rx="10" ry="10"></rect><text x="670" y="172">ROWID</text></g></g><path d="M700 168h20"></path></g></g><path d="M720 168h20"></path><path d="M70 168a10 10 0 0 1 10 10v40a10 10 0 0 0 10 10"></path><g><path d="M90 228h237"></path><path d="M483 228h237"></path><g class="terminal"><path d="M327 228h0"></path><path d="M363 228h0"></path><rect x="327" y="217" width="36" height="22" rx="10" ry="10"></rect><text x="345" y="232">AS</text></g><path d="M363 228h10"></path><path d="M373 228h10"></path><g class="non-terminal"><path d="M383 228h0"></path><path d="M483 228h0"></path><rect x="383" y="217" width="100" height="22"></rect><text x="433" y="232">select-stm</text></g></g><path d="M720 228a10 10 0 0 0 10 -10v-40a10 10 0 0 1 10 -10"></path></g></g><path d="M750 168h10"></path><path d="M760 168h0"></path></g><path d="M760 168h10"></path><path d="M 770 168 h 20 m -10 -10 v 20 m 10 -20 v 20"></path></g></svg>
