<svg class="railroad-diagram" width="800" height="80" viewBox="0 0 800 80" xmlns="http://www.w3.org/2000/svg">
   <style>
   /* <![CDATA[ */
   .hidden{
   display: none;
   }
   a.svg {
   position: relative;
   display: inline-block;
   }
   svg.railroad-diagram {
   background-color: hsl(30,20%,95%);
   }
   svg.railroad-diagram path {
   stroke-width: 3;
   stroke: black;
   fill: rgba(0,0,0,0);
   }
   svg.railroad-diagram text {
   font: bold 14px monospace;
   text-anchor: middle;
   }
   svg.railroad-diagram text.diagram-text {
   font-size: 12px;
   }
   svg.railroad-diagram text.diagram-arrow {
   font-size: 16px;
   }
   svg.railroad-diagram text.label {
   text-anchor: start;
   }
   svg.railroad-diagram text.comment {
   font: italic 12px monospace;
   }
   svg.railroad-diagram g.non-terminal text {
   /*font-style: italic;*/
   }
   svg.railroad-diagram rect {
   stroke-width: 3;
   stroke: black;
   fill: hsl(120,100%,90%);
   }
   svg.railroad-diagram path.diagram-text {
   stroke-width: 3;
   stroke: black;
   fill: white;
   cursor: help;
   }
   svg.railroad-diagram g.diagram-text:hover path.diagram-text {
   fill: #eee;
   }
   input[type=checkbox]:checked + div,
   input[type=checkbox]:checked + small + div {
   display: none;
   }
   .homeLink{
   background-color: #E4F5F8;
   border:1px solid #C0DEED; 
   text-decoration:none; 
   }
   header,
   section,
   aside,
   nav,
   footer {
   /* margin: 0 1.5% 24px 1.5%; */
   }
   section {
   float: left;
   width: 63%;
   }
   aside {
   float: right;
   width: 30%;
   }
   header{
   color:white;
   background-color:lightgrey;	
   }
   footer {
   clear: both;
   margin-bottom: 0;
   color:white;
   background-color:grey;
   }
   /* ]]> */
   </style>
<g transform="translate(.5 .5)"><path d="M 20 30 v 20 m 10 -20 v 20 m -10 -10 h 20.5"></path><path d="M40 40h10"></path><g><path d="M50 40h0"></path><path d="M734 40h0"></path><g><path d="M50 40h0"></path><path d="M130 40h0"></path><text x="90" y="45" class="comment">column-def</text></g><path d="M130 40h10"></path><path d="M140 40h10"></path><g class="non-terminal"><path d="M150 40h0"></path><path d="M258 40h0"></path><rect x="150" y="29" width="108" height="22"></rect><a xmlns:xlink="http://www.w3.org/1999/xlink" xlink:href="javascript:doc('NonTerminal','column-name')"><text x="204" y="44">column-name</text></a></g><path d="M258 40h10"></path><g><path d="M268 40h0"></path><path d="M400 40h0"></path><path d="M268 40a10 10 0 0 0 10 -10v0a10 10 0 0 1 10 -10"></path><g><path d="M288 20h92"></path></g><path d="M380 20a10 10 0 0 1 10 10v0a10 10 0 0 0 10 10"></path><path d="M268 40h20"></path><g class="non-terminal"><path d="M288 40h0"></path><path d="M380 40h0"></path><rect x="288" y="29" width="92" height="22"></rect><a xmlns:xlink="http://www.w3.org/1999/xlink" xlink:href="javascript:doc('NonTerminal','type-name')"><text x="334" y="44">type-name</text></a></g><path d="M380 40h20"></path></g><g><path d="M400 40h0"></path><path d="M616 40h0"></path><path d="M400 40a10 10 0 0 0 10 -10v0a10 10 0 0 1 10 -10"></path><g><path d="M420 20h176"></path></g><path d="M596 20a10 10 0 0 1 10 10v0a10 10 0 0 0 10 10"></path><path d="M400 40h20"></path><g><path d="M420 40h0"></path><path d="M596 40h0"></path><path d="M420 40h10"></path><g class="non-terminal"><path d="M430 40h0"></path><path d="M586 40h0"></path><rect x="430" y="29" width="156" height="22"></rect><a xmlns:xlink="http://www.w3.org/1999/xlink" xlink:href="javascript:doc('NonTerminal','column-constraint')"><text x="508" y="44">column-constraint</text></a></g><path d="M586 40h10"></path><path d="M430 40a10 10 0 0 0 -10 10v0a10 10 0 0 0 10 10"></path><g><path d="M430 60h156"></path></g><path d="M586 60a10 10 0 0 0 10 -10v0a10 10 0 0 0 -10 -10"></path></g><path d="M596 40h20"></path></g><path d="M616 40h10"></path><g><path d="M626 40h0"></path><path d="M734 40h0"></path><text x="680" y="45" class="comment">END column-def</text></g></g><path d="M734 40h10"></path><path d="M 744 40 h 20 m -10 -10 v 20 m 10 -20 v 20"></path></g></svg>
