<svg class="railroad-diagram" width="800" height="199" viewBox="0 0 800 199" xmlns="http://www.w3.org/2000/svg">
   <style>
   /* <![CDATA[ */
   .hidden{
   display: none;
   }
   a.svg {
   position: relative;
   display: inline-block;
   }
   svg.railroad-diagram {
   background-color: hsl(30,20%,95%);
   }
   svg.railroad-diagram path {
   stroke-width: 3;
   stroke: black;
   fill: rgba(0,0,0,0);
   }
   svg.railroad-diagram text {
   font: bold 14px monospace;
   text-anchor: middle;
   }
   svg.railroad-diagram text.diagram-text {
   font-size: 12px;
   }
   svg.railroad-diagram text.diagram-arrow {
   font-size: 16px;
   }
   svg.railroad-diagram text.label {
   text-anchor: start;
   }
   svg.railroad-diagram text.comment {
   font: italic 12px monospace;
   }
   svg.railroad-diagram g.non-terminal text {
   /*font-style: italic;*/
   }
   svg.railroad-diagram rect {
   stroke-width: 3;
   stroke: black;
   fill: hsl(120,100%,90%);
   }
   svg.railroad-diagram path.diagram-text {
   stroke-width: 3;
   stroke: black;
   fill: white;
   cursor: help;
   }
   svg.railroad-diagram g.diagram-text:hover path.diagram-text {
   fill: #eee;
   }
   input[type=checkbox]:checked + div,
   input[type=checkbox]:checked + small + div {
   display: none;
   }
   .homeLink{
   background-color: #E4F5F8;
   border:1px solid #C0DEED; 
   text-decoration:none; 
   }
   header,
   section,
   aside,
   nav,
   footer {
   /* margin: 0 1.5% 24px 1.5%; */
   }
   section {
   float: left;
   width: 63%;
   }
   aside {
   float: right;
   width: 30%;
   }
   header{
   color:white;
   background-color:lightgrey;	
   }
   footer {
   clear: both;
   margin-bottom: 0;
   color:white;
   background-color:grey;
   }
   /* ]]> */
   </style>
<g transform="translate(.5 .5)"><path d="M 20 21 v 20 m 10 -20 v 20 m -10 -10 h 20.5"></path><path d="M40 31h10"></path><g><path d="M50 31h0"></path><path d="M50 31h10"></path><g><path d="M60 31h200"></path><path d="M368 31h200"></path><text x="314" y="36" class="comment">indexed-column</text></g><path d="M568 31a10 10 0 0 1 10 10v0"></path><path d="M578 41a10 10 0 0 1 -10 10h-508"></path><path d="M60 51a10 10 0 0 0 -10 10v8"></path><path d="M50 69a10 10 0 0 0 10 10"></path><g><path d="M60 79h0"></path><path d="M568 79h0"></path><g><path d="M60 79h0"></path><path d="M208 79h0"></path><path d="M60 79h20"></path><g class="non-terminal"><path d="M80 79h0"></path><path d="M188 79h0"></path><rect x="80" y="68" width="108" height="22"></rect><a xmlns:xlink="http://www.w3.org/1999/xlink" xlink:href="javascript:doc('NonTerminal','column-name')"><text x="134" y="83">column-name</text></a></g><path d="M188 79h20"></path><path d="M60 79a10 10 0 0 1 10 10v10a10 10 0 0 0 10 10"></path><g class="non-terminal"><path d="M80 109h20"></path><path d="M168 109h20"></path><rect x="100" y="98" width="68" height="22"></rect><a xmlns:xlink="http://www.w3.org/1999/xlink" xlink:href="javascript:doc('NonImplemented','expr')"><text x="134" y="113">&lt;expr&gt;</text></a></g><path d="M188 109a10 10 0 0 0 10 -10v-10a10 10 0 0 1 10 -10"></path></g><g><path d="M208 79h0"></path><path d="M476 79h0"></path><path d="M208 79a10 10 0 0 0 10 -10v0a10 10 0 0 1 10 -10"></path><g><path d="M228 59h228"></path></g><path d="M456 59a10 10 0 0 1 10 10v0a10 10 0 0 0 10 10"></path><path d="M208 79h20"></path><g><path d="M228 79h0"></path><path d="M456 79h0"></path><g class="terminal"><path d="M228 79h0"></path><path d="M304 79h0"></path><rect x="228" y="68" width="76" height="22" rx="10" ry="10"></rect><a xmlns:xlink="http://www.w3.org/1999/xlink" xlink:href="javascript:doc('Terminal','COLLATE')"><text x="266" y="83">COLLATE</text></a></g><path d="M304 79h10"></path><path d="M314 79h10"></path><g class="non-terminal"><path d="M324 79h0"></path><path d="M456 79h0"></path><rect x="324" y="68" width="132" height="22"></rect><a xmlns:xlink="http://www.w3.org/1999/xlink" xlink:href="javascript:doc('NonTerminal','collation-name')"><text x="390" y="83">collation-name</text></a></g></g><path d="M456 79h20"></path></g><g><path d="M476 79h0"></path><path d="M568 79h0"></path><path d="M476 79h20"></path><g><path d="M496 79h52"></path></g><path d="M548 79h20"></path><path d="M476 79a10 10 0 0 1 10 10v0a10 10 0 0 0 10 10"></path><g class="terminal"><path d="M496 99h4"></path><path d="M544 99h4"></path><rect x="500" y="88" width="44" height="22" rx="10" ry="10"></rect><a xmlns:xlink="http://www.w3.org/1999/xlink" xlink:href="javascript:doc('Terminal','ASC')"><text x="522" y="103">ASC</text></a></g><path d="M548 99a10 10 0 0 0 10 -10v0a10 10 0 0 1 10 -10"></path><path d="M476 79a10 10 0 0 1 10 10v30a10 10 0 0 0 10 10"></path><g class="terminal"><path d="M496 129h0"></path><path d="M548 129h0"></path><rect x="496" y="118" width="52" height="22" rx="10" ry="10"></rect><a xmlns:xlink="http://www.w3.org/1999/xlink" xlink:href="javascript:doc('Terminal','DESC')"><text x="522" y="133">DESC</text></a></g><path d="M548 129a10 10 0 0 0 10 -10v-30a10 10 0 0 1 10 -10"></path></g></g><path d="M568 79a10 10 0 0 1 10 10v49"></path><path d="M578 138a10 10 0 0 1 -10 10h-508"></path><path d="M60 148a10 10 0 0 0 -10 10v0"></path><path d="M50 158a10 10 0 0 0 10 10"></path><g><path d="M60 168h186"></path><path d="M382 168h186"></path><text x="314" y="173" class="comment">END indexed-column</text></g><path d="M568 168h10"></path><path d="M578 168h0"></path></g><path d="M578 168h10"></path><path d="M 588 168 h 20 m -10 -10 v 20 m 10 -20 v 20"></path></g></svg>
