<svg class="railroad-diagram" width="800" height="62" viewBox="0 0 800 62" xmlns="http://www.w3.org/2000/svg">
   <style>
   /* <![CDATA[ */
   .hidden{
   display: none;
   }
   a.svg {
   position: relative;
   display: inline-block;
   }
   svg.railroad-diagram {
   background-color: hsl(30,20%,95%);
   }
   svg.railroad-diagram path {
   stroke-width: 3;
   stroke: black;
   fill: rgba(0,0,0,0);
   }
   svg.railroad-diagram text {
   font: bold 14px monospace;
   text-anchor: middle;
   }
   svg.railroad-diagram text.diagram-text {
   font-size: 12px;
   }
   svg.railroad-diagram text.diagram-arrow {
   font-size: 16px;
   }
   svg.railroad-diagram text.label {
   text-anchor: start;
   }
   svg.railroad-diagram text.comment {
   font: italic 12px monospace;
   }
   svg.railroad-diagram g.non-terminal text {
   /*font-style: italic;*/
   }
   svg.railroad-diagram rect {
   stroke-width: 3;
   stroke: black;
   fill: hsl(120,100%,90%);
   }
   svg.railroad-diagram path.diagram-text {
   stroke-width: 3;
   stroke: black;
   fill: white;
   cursor: help;
   }
   svg.railroad-diagram g.diagram-text:hover path.diagram-text {
   fill: #eee;
   }
   input[type=checkbox]:checked + div,
   input[type=checkbox]:checked + small + div {
   display: none;
   }
   .homeLink{
   background-color: #E4F5F8;
   border:1px solid #C0DEED; 
   text-decoration:none; 
   }
   header,
   section,
   aside,
   nav,
   footer {
   /* margin: 0 1.5% 24px 1.5%; */
   }
   section {
   float: left;
   width: 63%;
   }
   aside {
   float: right;
   width: 30%;
   }
   header{
   color:white;
   background-color:lightgrey;	
   }
   footer {
   clear: both;
   margin-bottom: 0;
   color:white;
   background-color:grey;
   }
   /* ]]> */
   </style>
<g transform="translate(.5 .5)"><path d="M 20 21 v 20 m 10 -20 v 20 m -10 -10 h 20.5"></path><path d="M40 31h10"></path><g><path d="M50 31h0"></path><path d="M660 31h0"></path><g><path d="M50 31h0"></path><path d="M123 31h0"></path><text x="86.5" y="36" class="comment">OneOrMore</text></g><path d="M123 31h10"></path><path d="M133 31h10"></path><g class="terminal"><path d="M143 31h0"></path><path d="M235 31h0"></path><rect x="143" y="20" width="92" height="22" rx="10" ry="10"></rect><a xmlns:xlink="http://www.w3.org/1999/xlink" xlink:href="javascript:doc('Terminal','OneOrMore')"><text x="189" y="35">OneOrMore</text></a></g><path d="M235 31h10"></path><path d="M245 31h10"></path><g class="terminal"><path d="M255 31h0"></path><path d="M283 31h0"></path><rect x="255" y="20" width="28" height="22" rx="10" ry="10"></rect><a xmlns:xlink="http://www.w3.org/1999/xlink" xlink:href="javascript:doc('Terminal','(')"><text x="269" y="35">(</text></a></g><path d="M283 31h10"></path><path d="M293 31h10"></path><g class="non-terminal"><path d="M303 31h0"></path><path d="M363 31h0"></path><rect x="303" y="20" width="60" height="22"></rect><a xmlns:xlink="http://www.w3.org/1999/xlink" xlink:href="javascript:doc('NonTerminal','Child')"><text x="333" y="35">Child</text></a></g><path d="M363 31h10"></path><path d="M373 31h10"></path><g class="terminal"><path d="M383 31h0"></path><path d="M411 31h0"></path><rect x="383" y="20" width="28" height="22" rx="10" ry="10"></rect><a xmlns:xlink="http://www.w3.org/1999/xlink" xlink:href="javascript:doc('Terminal',',')"><text x="397" y="35">,</text></a></g><path d="M411 31h10"></path><path d="M421 31h10"></path><g class="non-terminal"><path d="M431 31h0"></path><path d="M491 31h0"></path><rect x="431" y="20" width="60" height="22"></rect><a xmlns:xlink="http://www.w3.org/1999/xlink" xlink:href="javascript:doc('NonTerminal','Child')"><text x="461" y="35">Child</text></a></g><path d="M491 31h10"></path><path d="M501 31h10"></path><g class="terminal"><path d="M511 31h0"></path><path d="M539 31h0"></path><rect x="511" y="20" width="28" height="22" rx="10" ry="10"></rect><a xmlns:xlink="http://www.w3.org/1999/xlink" xlink:href="javascript:doc('Terminal',')')"><text x="525" y="35">)</text></a></g><path d="M539 31h10"></path><path d="M549 31h10"></path><g><path d="M559 31h0"></path><path d="M660 31h0"></path><text x="609.5" y="36" class="comment">END OneOrMore</text></g></g><path d="M660 31h10"></path><path d="M 670 31 h 20 m -10 -10 v 20 m 10 -20 v 20"></path></g></svg>
