<svg class="railroad-diagram" width="800" height="101" viewBox="0 0 800 101" xmlns="http://www.w3.org/2000/svg">
   <style>
   /* <![CDATA[ */
   .hidden{
   display: none;
   }
   a.svg {
   position: relative;
   display: inline-block;
   }
   svg.railroad-diagram {
   background-color: hsl(30,20%,95%);
   }
   svg.railroad-diagram path {
   stroke-width: 3;
   stroke: black;
   fill: rgba(0,0,0,0);
   }
   svg.railroad-diagram text {
   font: bold 14px monospace;
   text-anchor: middle;
   }
   svg.railroad-diagram text.diagram-text {
   font-size: 12px;
   }
   svg.railroad-diagram text.diagram-arrow {
   font-size: 16px;
   }
   svg.railroad-diagram text.label {
   text-anchor: start;
   }
   svg.railroad-diagram text.comment {
   font: italic 12px monospace;
   }
   svg.railroad-diagram g.non-terminal text {
   /*font-style: italic;*/
   }
   svg.railroad-diagram rect {
   stroke-width: 3;
   stroke: black;
   fill: hsl(120,100%,90%);
   }
   svg.railroad-diagram path.diagram-text {
   stroke-width: 3;
   stroke: black;
   fill: white;
   cursor: help;
   }
   svg.railroad-diagram g.diagram-text:hover path.diagram-text {
   fill: #eee;
   }
   input[type=checkbox]:checked + div,
   input[type=checkbox]:checked + small + div {
   display: none;
   }
   .homeLink{
   background-color: #E4F5F8;
   border:1px solid #C0DEED; 
   text-decoration:none; 
   }
   header,
   section,
   aside,
   nav,
   footer {
   /* margin: 0 1.5% 24px 1.5%; */
   }
   section {
   float: left;
   width: 63%;
   }
   aside {
   float: right;
   width: 30%;
   }
   header{
   color:white;
   background-color:lightgrey;	
   }
   footer {
   clear: both;
   margin-bottom: 0;
   color:white;
   background-color:grey;
   }
   /* ]]> */
   </style>
<g transform="translate(.5 .5)"><path d="M 20 30 v 20 m 10 -20 v 20 m -10 -10 h 20.5"></path><path d="M40 40h10"></path><g><path d="M50 40h0"></path><path d="M568 40h0"></path><g><path d="M50 40h0"></path><path d="M151 40h0"></path><text x="100.5" y="45" class="comment">signed-number</text></g><path d="M151 40h10"></path><g><path d="M161 40h0"></path><path d="M269 40h0"></path><path d="M161 40a10 10 0 0 0 10 -10v0a10 10 0 0 1 10 -10"></path><g><path d="M181 20h68"></path></g><path d="M249 20a10 10 0 0 1 10 10v0a10 10 0 0 0 10 10"></path><path d="M161 40h20"></path><g><path d="M181 40h0"></path><path d="M249 40h0"></path><path d="M181 40h20"></path><g class="terminal"><path d="M201 40h0"></path><path d="M229 40h0"></path><rect x="201" y="29" width="28" height="22" rx="10" ry="10"></rect><a xmlns:xlink="http://www.w3.org/1999/xlink" xlink:href="javascript:doc('Terminal','+')"><text x="215" y="44">+</text></a></g><path d="M229 40h20"></path><path d="M181 40a10 10 0 0 1 10 10v10a10 10 0 0 0 10 10"></path><g class="terminal"><path d="M201 70h0"></path><path d="M229 70h0"></path><rect x="201" y="59" width="28" height="22" rx="10" ry="10"></rect><a xmlns:xlink="http://www.w3.org/1999/xlink" xlink:href="javascript:doc('Terminal','-')"><text x="215" y="74">-</text></a></g><path d="M229 70a10 10 0 0 0 10 -10v-10a10 10 0 0 1 10 -10"></path></g><path d="M249 40h20"></path></g><path d="M269 40h10"></path><g class="non-terminal"><path d="M279 40h0"></path><path d="M419 40h0"></path><rect x="279" y="29" width="140" height="22"></rect><a xmlns:xlink="http://www.w3.org/1999/xlink" xlink:href="javascript:doc('NonTerminal','numeric-literal')"><text x="349" y="44">numeric-literal</text></a></g><path d="M419 40h10"></path><path d="M429 40h10"></path><g><path d="M439 40h0"></path><path d="M568 40h0"></path><text x="503.5" y="45" class="comment">END signed-number</text></g></g><path d="M568 40h10"></path><path d="M 578 40 h 20 m -10 -10 v 20 m 10 -20 v 20"></path></g></svg>
