<svg class="railroad-diagram" width="800" height="191" viewBox="0 0 800 191" xmlns="http://www.w3.org/2000/svg">
   <style>
   /* <![CDATA[ */
   .hidden{
   display: none;
   }
   a.svg {
   position: relative;
   display: inline-block;
   }
   svg.railroad-diagram {
   background-color: hsl(30,20%,95%);
   }
   svg.railroad-diagram path {
   stroke-width: 3;
   stroke: black;
   fill: rgba(0,0,0,0);
   }
   svg.railroad-diagram text {
   font: bold 14px monospace;
   text-anchor: middle;
   }
   svg.railroad-diagram text.diagram-text {
   font-size: 12px;
   }
   svg.railroad-diagram text.diagram-arrow {
   font-size: 16px;
   }
   svg.railroad-diagram text.label {
   text-anchor: start;
   }
   svg.railroad-diagram text.comment {
   font: italic 12px monospace;
   }
   svg.railroad-diagram g.non-terminal text {
   /*font-style: italic;*/
   }
   svg.railroad-diagram rect {
   stroke-width: 3;
   stroke: black;
   fill: hsl(120,100%,90%);
   }
   svg.railroad-diagram path.diagram-text {
   stroke-width: 3;
   stroke: black;
   fill: white;
   cursor: help;
   }
   svg.railroad-diagram g.diagram-text:hover path.diagram-text {
   fill: #eee;
   }
   input[type=checkbox]:checked + div,
   input[type=checkbox]:checked + small + div {
   display: none;
   }
   .homeLink{
   background-color: #E4F5F8;
   border:1px solid #C0DEED; 
   text-decoration:none; 
   }
   header,
   section,
   aside,
   nav,
   footer {
   /* margin: 0 1.5% 24px 1.5%; */
   }
   section {
   float: left;
   width: 63%;
   }
   aside {
   float: right;
   width: 30%;
   }
   header{
   color:white;
   background-color:lightgrey;	
   }
   footer {
   clear: both;
   margin-bottom: 0;
   color:white;
   background-color:grey;
   }
   /* ]]> */
   </style>
<g transform="translate(.5 .5)"><path d="M 20 21 v 20 m 10 -20 v 20 m -10 -10 h 20.5"></path><path d="M40 31h10"></path><g><path d="M50 31h0"></path><path d="M50 31h10"></path><g><path d="M60 31h220.5"></path><path d="M353.5 31h220.5"></path><text x="317" y="36" class="comment">type-name</text></g><path d="M574 31a10 10 0 0 1 10 10v0"></path><path d="M584 41a10 10 0 0 1 -10 10h-514"></path><path d="M60 51a10 10 0 0 0 -10 10v0"></path><path d="M50 61a10 10 0 0 0 10 10"></path><g><path d="M60 71h0"></path><path d="M574 71h0"></path><g class="non-terminal"><path d="M60 71h0"></path><path d="M112 71h0"></path><rect x="60" y="60" width="52" height="22"></rect><a xmlns:xlink="http://www.w3.org/1999/xlink" xlink:href="javascript:doc('NonTerminal','name')"><text x="86" y="75">name</text></a></g><path d="M112 71h10"></path><g><path d="M122 71h0"></path><path d="M574 71h0"></path><path d="M122 71h20"></path><g><path d="M142 71h412"></path></g><path d="M554 71h20"></path><path d="M122 71a10 10 0 0 1 10 10v0a10 10 0 0 0 10 10"></path><g><path d="M142 91h96"></path><path d="M458 91h96"></path><g class="terminal"><path d="M238 91h0"></path><path d="M266 91h0"></path><rect x="238" y="80" width="28" height="22" rx="10" ry="10"></rect><a xmlns:xlink="http://www.w3.org/1999/xlink" xlink:href="javascript:doc('Terminal','(')"><text x="252" y="95">(</text></a></g><path d="M266 91h10"></path><path d="M276 91h10"></path><g class="non-terminal"><path d="M286 91h0"></path><path d="M410 91h0"></path><rect x="286" y="80" width="124" height="22"></rect><a xmlns:xlink="http://www.w3.org/1999/xlink" xlink:href="javascript:doc('NonTerminal','signed-number')"><text x="348" y="95">signed-number</text></a></g><path d="M410 91h10"></path><path d="M420 91h10"></path><g class="terminal"><path d="M430 91h0"></path><path d="M458 91h0"></path><rect x="430" y="80" width="28" height="22" rx="10" ry="10"></rect><a xmlns:xlink="http://www.w3.org/1999/xlink" xlink:href="javascript:doc('Terminal',')')"><text x="444" y="95">)</text></a></g></g><path d="M554 91a10 10 0 0 0 10 -10v0a10 10 0 0 1 10 -10"></path><path d="M122 71a10 10 0 0 1 10 10v30a10 10 0 0 0 10 10"></path><g><path d="M142 121h0"></path><path d="M554 121h0"></path><g class="terminal"><path d="M142 121h0"></path><path d="M170 121h0"></path><rect x="142" y="110" width="28" height="22" rx="10" ry="10"></rect><a xmlns:xlink="http://www.w3.org/1999/xlink" xlink:href="javascript:doc('Terminal','(')"><text x="156" y="125">(</text></a></g><path d="M170 121h10"></path><path d="M180 121h10"></path><g class="non-terminal"><path d="M190 121h0"></path><path d="M314 121h0"></path><rect x="190" y="110" width="124" height="22"></rect><a xmlns:xlink="http://www.w3.org/1999/xlink" xlink:href="javascript:doc('NonTerminal','signed-number')"><text x="252" y="125">signed-number</text></a></g><path d="M314 121h10"></path><path d="M324 121h10"></path><g class="terminal"><path d="M334 121h0"></path><path d="M362 121h0"></path><rect x="334" y="110" width="28" height="22" rx="10" ry="10"></rect><a xmlns:xlink="http://www.w3.org/1999/xlink" xlink:href="javascript:doc('Terminal',',')"><text x="348" y="125">,</text></a></g><path d="M362 121h10"></path><path d="M372 121h10"></path><g class="non-terminal"><path d="M382 121h0"></path><path d="M506 121h0"></path><rect x="382" y="110" width="124" height="22"></rect><a xmlns:xlink="http://www.w3.org/1999/xlink" xlink:href="javascript:doc('NonTerminal','signed-number')"><text x="444" y="125">signed-number</text></a></g><path d="M506 121h10"></path><path d="M516 121h10"></path><g class="terminal"><path d="M526 121h0"></path><path d="M554 121h0"></path><rect x="526" y="110" width="28" height="22" rx="10" ry="10"></rect><a xmlns:xlink="http://www.w3.org/1999/xlink" xlink:href="javascript:doc('Terminal',')')"><text x="540" y="125">)</text></a></g></g><path d="M554 121a10 10 0 0 0 10 -10v-30a10 10 0 0 1 10 -10"></path></g></g><path d="M574 71a10 10 0 0 1 10 10v49"></path><path d="M584 130a10 10 0 0 1 -10 10h-514"></path><path d="M60 140a10 10 0 0 0 -10 10v0"></path><path d="M50 150a10 10 0 0 0 10 10"></path><g><path d="M60 160h206.5"></path><path d="M367.5 160h206.5"></path><text x="317" y="165" class="comment">END type-name</text></g><path d="M574 160h10"></path><path d="M584 160h0"></path></g><path d="M584 160h10"></path><path d="M 594 160 h 20 m -10 -10 v 20 m 10 -20 v 20"></path></g></svg>
