<style>
   .hidden{
   display: none;
   }
   a.svg {
   position: relative;
   display: inline-block;
   }
   svg.railroad-diagram {
   background-color: hsl(30,20%,95%);
   }
   svg.railroad-diagram path {
   stroke-width: 3;
   stroke: black;
   fill: rgba(0,0,0,0);
   }
   svg.railroad-diagram text {
   font: bold 14px monospace;
   text-anchor: middle;
   }
   svg.railroad-diagram text.diagram-text {
   font-size: 12px;
   }
   svg.railroad-diagram text.diagram-arrow {
   font-size: 16px;
   }
   svg.railroad-diagram text.label {
   text-anchor: start;
   }
   svg.railroad-diagram text.comment {
   font: italic 12px monospace;
   }
   svg.railroad-diagram g.non-terminal text {
   /*font-style: italic;*/
   }
   svg.railroad-diagram rect {
   stroke-width: 3;
   stroke: black;
   fill: hsl(120,100%,90%);
   }
   svg.railroad-diagram path.diagram-text {
   stroke-width: 3;
   stroke: black;
   fill: white;
   cursor: help;
   }
   svg.railroad-diagram g.diagram-text:hover path.diagram-text {
   fill: #eee;
   }
   input[type=checkbox]:checked + div,
   input[type=checkbox]:checked + small + div {
   display: none;
   }
   .homeLink{
   background-color: #E4F5F8;
   border:1px solid #C0DEED; 
   text-decoration:none; 
   }
   header,
   section,
   aside,
   nav,
   footer {
   /* margin: 0 1.5% 24px 1.5%; */
   }
   section {
   float: left;
   width: 63%;
   }
   aside {
   float: right;
   width: 30%;
   }
   header{
   color:white;
   background-color:lightgrey;	
   }
   footer {
   clear: both;
   margin-bottom: 0;
   color:white;
   background-color:grey;
   }
</style>
<svg class="railroad-diagram" width="740" height="62" viewBox="0 0 740 62">
   <g transform="translate(.5 .5)">
      <path d="M 20 21 v 20 m 10 -20 v 20 m -10 -10 h 20.5"></path>
      <path d="M40 31h10"></path>
      <g>
         <path d="M50 31h0"></path>
         <path d="M690 31h0"></path>
         <g>
            <path d="M50 31h0"></path>
            <path d="M102 31h0"></path>
            <text x="76" y="36" class="comment">Choice</text>
         </g>
         <path d="M102 31h10"></path>
         <path d="M112 31h10"></path>
         <g class="terminal">
            <path d="M122 31h0"></path>
            <path d="M190 31h0"></path>
            <rect x="122" y="20" width="68" height="22" rx="10" ry="10"></rect>
            <a xmlns:xlink="http://www.w3.org/1999/xlink" xlink:href="javascript:doc('Terminal','Choice')">
               <text x="156" y="35">Choice</text>
            </a>
         </g>
         <path d="M190 31h10"></path>
         <path d="M200 31h10"></path>
         <g class="terminal">
            <path d="M210 31h0"></path>
            <path d="M238 31h0"></path>
            <rect x="210" y="20" width="28" height="22" rx="10" ry="10"></rect>
            <a xmlns:xlink="http://www.w3.org/1999/xlink" xlink:href="javascript:doc('Terminal','(')">
               <text x="224" y="35">(</text>
            </a>
         </g>
         <path d="M238 31h10"></path>
         <path d="M248 31h10"></path>
         <g class="non-terminal">
            <path d="M258 31h0"></path>
            <path d="M334 31h0"></path>
            <rect x="258" y="20" width="76" height="22"></rect>
            <a xmlns:xlink="http://www.w3.org/1999/xlink" xlink:href="javascript:doc('NonTerminal','ordinal')">
               <text x="296" y="35">ordinal</text>
            </a>
         </g>
         <path d="M334 31h10"></path>
         <path d="M344 31h10"></path>
         <g class="terminal">
            <path d="M354 31h0"></path>
            <path d="M382 31h0"></path>
            <rect x="354" y="20" width="28" height="22" rx="10" ry="10"></rect>
            <a xmlns:xlink="http://www.w3.org/1999/xlink" xlink:href="javascript:doc('Terminal',',')">
               <text x="368" y="35">,</text>
            </a>
         </g>
         <path d="M382 31h10"></path>
         <path d="M392 31h10"></path>
         <g class="non-terminal">
            <path d="M402 31h0"></path>
            <path d="M542 31h0"></path>
            <rect x="402" y="20" width="140" height="22"></rect>
            <a xmlns:xlink="http://www.w3.org/1999/xlink" xlink:href="javascript:doc('NonTerminal','TwoOrMoreChilds')">
               <text x="472" y="35">TwoOrMoreChilds</text>
            </a>
         </g>
         <path d="M542 31h10"></path>
         <path d="M552 31h10"></path>
         <g class="terminal">
            <path d="M562 31h0"></path>
            <path d="M590 31h0"></path>
            <rect x="562" y="20" width="28" height="22" rx="10" ry="10"></rect>
            <a xmlns:xlink="http://www.w3.org/1999/xlink" xlink:href="javascript:doc('Terminal',')')">
               <text x="576" y="35">)</text>
            </a>
         </g>
         <path d="M590 31h10"></path>
         <path d="M600 31h10"></path>
         <g>
            <path d="M610 31h0"></path>
            <path d="M690 31h0"></path>
            <text x="650" y="36" class="comment">END Choice</text>
         </g>
      </g>
      <path d="M690 31h10"></path>
      <path d="M 700 31 h 20 m -10 -10 v 20 m 10 -20 v 20"></path>
   </g>
</svg>
