<svg class="railroad-diagram" width="372" height="92" viewBox="0 0 372 92"><g transform="translate(.5 .5)"><path d="M 20 21 v 20 m 10 -20 v 20 m -10 -10 h 20.5"></path><path d="M40 31h10"></path><g><path d="M50 31h0"></path><path d="M322 31h0"></path><g><path d="M50 31h0"></path><path d="M116 31h0"></path><text x="83" y="36" class="comment">RailRoad</text></g><path d="M116 31h10"></path><path d="M126 31h10"></path><g><path d="M136 31h0"></path><path d="M208 31h0"></path><path d="M136 31h10"></path><g class="non-terminal"><path d="M146 31h0"></path><path d="M198 31h0"></path><rect x="146" y="20" width="52" height="22"></rect><a xmlns:xlink="http://www.w3.org/1999/xlink" xlink:href="javascript:doc('NonTerminal','Show')"><text x="172" y="35">Show</text></a></g><path d="M198 31h10"></path><path d="M146 31a10 10 0 0 0 -10 10v10a10 10 0 0 0 10 10"></path><g class="terminal"><path d="M146 61h12"></path><path d="M186 61h12"></path><rect x="158" y="50" width="28" height="22" rx="10" ry="10"></rect><a xmlns:xlink="http://www.w3.org/1999/xlink" xlink:href="javascript:doc('Terminal',';')"><text x="172" y="65">;</text></a></g><path d="M198 61a10 10 0 0 0 10 -10v-10a10 10 0 0 0 -10 -10"></path></g><path d="M208 31h10"></path><path d="M218 31h10"></path><g><path d="M228 31h0"></path><path d="M322 31h0"></path><text x="275" y="36" class="comment">END Railroad</text></g></g><path d="M322 31h10"></path><path d="M 332 31 h 20 m -10 -10 v 20 m 10 -20 v 20"></path></g></svg>
