<svg class="railroad-diagram" width="740" height="131" viewBox="0 0 740 131" xmlns="http://www.w3.org/2000/svg">>
   <style>
   /* <![CDATA[ */
   .hidden{
   display: none;
   }
   a.svg {
   position: relative;
   display: inline-block;
   }
   svg.railroad-diagram {
   background-color: hsl(30,20%,95%);
   }
   svg.railroad-diagram path {
   stroke-width: 3;
   stroke: black;
   fill: rgba(0,0,0,0);
   }
   svg.railroad-diagram text {
   font: bold 14px monospace;
   text-anchor: middle;
   }
   svg.railroad-diagram text.diagram-text {
   font-size: 12px;
   }
   svg.railroad-diagram text.diagram-arrow {
   font-size: 16px;
   }
   svg.railroad-diagram text.label {
   text-anchor: start;
   }
   svg.railroad-diagram text.comment {
   font: italic 12px monospace;
   }
   svg.railroad-diagram g.non-terminal text {
   /*font-style: italic;*/
   }
   svg.railroad-diagram rect {
   stroke-width: 3;
   stroke: black;
   fill: hsl(120,100%,90%);
   }
   svg.railroad-diagram path.diagram-text {
   stroke-width: 3;
   stroke: black;
   fill: white;
   cursor: help;
   }
   svg.railroad-diagram g.diagram-text:hover path.diagram-text {
   fill: #eee;
   }
   input[type=checkbox]:checked + div,
   input[type=checkbox]:checked + small + div {
   display: none;
   }
   .homeLink{
   background-color: #E4F5F8;
   border:1px solid #C0DEED; 
   text-decoration:none; 
   }
   header,
   section,
   aside,
   nav,
   footer {
   /* margin: 0 1.5% 24px 1.5%; */
   }
   section {
   float: left;
   width: 63%;
   }
   aside {
   float: right;
   width: 30%;
   }
   header{
   color:white;
   background-color:lightgrey;	
   }
   footer {
   clear: both;
   margin-bottom: 0;
   color:white;
   background-color:grey;
   }
   /* ]]> */
   </style>
<g transform="translate(.5 .5)"><path d="M 20 30 v 20 m 10 -20 v 20 m -10 -10 h 20.5"></path><path d="M40 40h10"></path><g><path d="M50 40h0"></path><path d="M742 40h0"></path><g><path d="M50 40h0"></path><path d="M88 40h0"></path><text x="69" y="45" class="comment">Show</text></g><path d="M88 40h10"></path><path d="M98 40h10"></path><g><path d="M108 40h0"></path><path d="M656 40h0"></path><g class="terminal"><path d="M108 40h0"></path><path d="M160 40h0"></path><rect x="108" y="29" width="52" height="22" rx="10" ry="10"></rect><a xmlns:xlink="http://www.w3.org/1999/xlink" xlink:href="javascript:doc('Terminal','Show')"><text x="134" y="44">Show</text></a></g><path d="M160 40h10"></path><path d="M170 40h10"></path><g class="terminal"><path d="M180 40h0"></path><path d="M208 40h0"></path><rect x="180" y="29" width="28" height="22" rx="10" ry="10"></rect><a xmlns:xlink="http://www.w3.org/1999/xlink" xlink:href="javascript:doc('Terminal','(')"><text x="194" y="44">(</text></a></g><path d="M208 40h10"></path><g><path d="M218 40h0"></path><path d="M618 40h0"></path><path d="M218 40h20"></path><g><path d="M238 40h0"></path><path d="M598 40h0"></path><g class="non-terminal"><path d="M238 40h0"></path><path d="M298 40h0"></path><rect x="238" y="29" width="60" height="22"></rect><a xmlns:xlink="http://www.w3.org/1999/xlink" xlink:href="javascript:doc('NonTerminal','Title')"><text x="268" y="44">Title</text></a></g><path d="M298 40h10"></path><g><path d="M308 40h0"></path><path d="M464 40h0"></path><path d="M308 40a10 10 0 0 0 10 -10v0a10 10 0 0 1 10 -10"></path><g><path d="M328 20h116"></path></g><path d="M444 20a10 10 0 0 1 10 10v0a10 10 0 0 0 10 10"></path><path d="M308 40h20"></path><g><path d="M328 40h0"></path><path d="M444 40h0"></path><g class="terminal"><path d="M328 40h0"></path><path d="M356 40h0"></path><rect x="328" y="29" width="28" height="22" rx="10" ry="10"></rect><a xmlns:xlink="http://www.w3.org/1999/xlink" xlink:href="javascript:doc('Terminal',',')"><text x="342" y="44">,</text></a></g><path d="M356 40h10"></path><path d="M366 40h10"></path><g class="non-terminal"><path d="M376 40h0"></path><path d="M444 40h0"></path><rect x="376" y="29" width="68" height="22"></rect><a xmlns:xlink="http://www.w3.org/1999/xlink" xlink:href="javascript:doc('NonTerminal','Childs')"><text x="410" y="44">Childs</text></a></g></g><path d="M444 40h20"></path></g><path d="M464 40h10"></path><g class="terminal"><path d="M474 40h0"></path><path d="M502 40h0"></path><rect x="474" y="29" width="28" height="22" rx="10" ry="10"></rect><a xmlns:xlink="http://www.w3.org/1999/xlink" xlink:href="javascript:doc('Terminal',',')"><text x="488" y="44">,</text></a></g><path d="M502 40h10"></path><path d="M512 40h10"></path><g class="non-terminal"><path d="M522 40h0"></path><path d="M598 40h0"></path><rect x="522" y="29" width="76" height="22"></rect><a xmlns:xlink="http://www.w3.org/1999/xlink" xlink:href="javascript:doc('NonTerminal','Comment')"><text x="560" y="44">Comment</text></a></g></g><path d="M598 40h20"></path><path d="M218 40a10 10 0 0 1 10 10v10a10 10 0 0 0 10 10"></path><g class="non-terminal"><path d="M238 70h126"></path><path d="M472 70h126"></path><rect x="364" y="59" width="108" height="22"></rect><a xmlns:xlink="http://www.w3.org/1999/xlink" xlink:href="javascript:doc('NonTerminal','Title Stack')"><text x="418" y="74">Title Stack</text></a></g><path d="M598 70a10 10 0 0 0 10 -10v-10a10 10 0 0 1 10 -10"></path><path d="M218 40a10 10 0 0 1 10 10v40a10 10 0 0 0 10 10"></path><g class="non-terminal"><path d="M238 100h114"></path><path d="M484 100h114"></path><rect x="352" y="89" width="132" height="22"></rect><a xmlns:xlink="http://www.w3.org/1999/xlink" xlink:href="javascript:doc('NonTerminal','Title Sequence')"><text x="418" y="104">Title Sequence</text></a></g><path d="M598 100a10 10 0 0 0 10 -10v-40a10 10 0 0 1 10 -10"></path></g><path d="M618 40h10"></path><g class="terminal"><path d="M628 40h0"></path><path d="M656 40h0"></path><rect x="628" y="29" width="28" height="22" rx="10" ry="10"></rect><a xmlns:xlink="http://www.w3.org/1999/xlink" xlink:href="javascript:doc('Terminal',')')"><text x="642" y="44">)</text></a></g></g><path d="M656 40h10"></path><path d="M666 40h10"></path><g><path d="M676 40h0"></path><path d="M742 40h0"></path><text x="709" y="45" class="comment">END Show</text></g></g><path d="M742 40h10"></path><path d="M 752 40 h 20 m -10 -10 v 20 m 10 -20 v 20"></path></g></svg>
