<svg class="railroad-diagram" width="800" height="62" viewBox="0 0 800 62" xmlns="http://www.w3.org/2000/svg">
   <style>
   /* <![CDATA[ */
   .hidden{
   display: none;
   }
   a.svg {
   position: relative;
   display: inline-block;
   }
   svg.railroad-diagram {
   background-color: hsl(30,20%,95%);
   }
   svg.railroad-diagram path {
   stroke-width: 3;
   stroke: black;
   fill: rgba(0,0,0,0);
   }
   svg.railroad-diagram text {
   font: bold 14px monospace;
   text-anchor: middle;
   }
   svg.railroad-diagram text.diagram-text {
   font-size: 12px;
   }
   svg.railroad-diagram text.diagram-arrow {
   font-size: 16px;
   }
   svg.railroad-diagram text.label {
   text-anchor: start;
   }
   svg.railroad-diagram text.comment {
   font: italic 12px monospace;
   }
   svg.railroad-diagram g.non-terminal text {
   /*font-style: italic;*/
   }
   svg.railroad-diagram rect {
   stroke-width: 3;
   stroke: black;
   fill: hsl(120,100%,90%);
   }
   svg.railroad-diagram path.diagram-text {
   stroke-width: 3;
   stroke: black;
   fill: white;
   cursor: help;
   }
   svg.railroad-diagram g.diagram-text:hover path.diagram-text {
   fill: #eee;
   }
   input[type=checkbox]:checked + div,
   input[type=checkbox]:checked + small + div {
   display: none;
   }
   .homeLink{
   background-color: #E4F5F8;
   border:1px solid #C0DEED; 
   text-decoration:none; 
   }
   header,
   section,
   aside,
   nav,
   footer {
   /* margin: 0 1.5% 24px 1.5%; */
   }
   section {
   float: left;
   width: 63%;
   }
   aside {
   float: right;
   width: 30%;
   }
   header{
   color:white;
   background-color:lightgrey;	
   }
   footer {
   clear: both;
   margin-bottom: 0;
   color:white;
   background-color:grey;
   }
   /* ]]> */
   </style>
<g transform="translate(.5 .5)"><path d="M 20 21 v 20 m 10 -20 v 20 m -10 -10 h 20.5"></path><path d="M40 31h10"></path><g><path d="M50 31h0"></path><path d="M518 31h0"></path><g><path d="M50 31h0"></path><path d="M116 31h0"></path><text x="83" y="36" class="comment">Terminal</text></g><path d="M116 31h10"></path><path d="M126 31h10"></path><g><path d="M136 31h0"></path><path d="M404 31h0"></path><g class="terminal"><path d="M136 31h0"></path><path d="M220 31h0"></path><rect x="136" y="20" width="84" height="22" rx="10" ry="10"></rect><a xmlns:xlink="http://www.w3.org/1999/xlink" xlink:href="javascript:doc('Terminal','Terminal')"><text x="178" y="35">Terminal</text></a></g><path d="M220 31h10"></path><path d="M230 31h10"></path><g class="terminal"><path d="M240 31h0"></path><path d="M268 31h0"></path><rect x="240" y="20" width="28" height="22" rx="10" ry="10"></rect><a xmlns:xlink="http://www.w3.org/1999/xlink" xlink:href="javascript:doc('Terminal','(')"><text x="254" y="35">(</text></a></g><path d="M268 31h10"></path><path d="M278 31h10"></path><g class="non-terminal"><path d="M288 31h0"></path><path d="M356 31h0"></path><rect x="288" y="20" width="68" height="22"></rect><a xmlns:xlink="http://www.w3.org/1999/xlink" xlink:href="javascript:doc('NonTerminal','string')"><text x="322" y="35">string</text></a></g><path d="M356 31h10"></path><path d="M366 31h10"></path><g class="terminal"><path d="M376 31h0"></path><path d="M404 31h0"></path><rect x="376" y="20" width="28" height="22" rx="10" ry="10"></rect><a xmlns:xlink="http://www.w3.org/1999/xlink" xlink:href="javascript:doc('Terminal',')')"><text x="390" y="35">)</text></a></g></g><path d="M404 31h10"></path><path d="M414 31h10"></path><g><path d="M424 31h0"></path><path d="M518 31h0"></path><text x="471" y="36" class="comment">END Terminal</text></g></g><path d="M518 31h10"></path><path d="M 528 31 h 20 m -10 -10 v 20 m 10 -20 v 20"></path></g></svg>
