<svg class="railroad-diagram" width="800" height="62" viewBox="0 0 800 62" xmlns="http://www.w3.org/2000/svg">
   <style>
   /* <![CDATA[ */
   .hidden{
   display: none;
   }
   a.svg {
   position: relative;
   display: inline-block;
   }
   svg.railroad-diagram {
   background-color: hsl(30,20%,95%);
   }
   svg.railroad-diagram path {
   stroke-width: 3;
   stroke: black;
   fill: rgba(0,0,0,0);
   }
   svg.railroad-diagram text {
   font: bold 14px monospace;
   text-anchor: middle;
   }
   svg.railroad-diagram text.diagram-text {
   font-size: 12px;
   }
   svg.railroad-diagram text.diagram-arrow {
   font-size: 16px;
   }
   svg.railroad-diagram text.label {
   text-anchor: start;
   }
   svg.railroad-diagram text.comment {
   font: italic 12px monospace;
   }
   svg.railroad-diagram g.non-terminal text {
   /*font-style: italic;*/
   }
   svg.railroad-diagram rect {
   stroke-width: 3;
   stroke: black;
   fill: hsl(120,100%,90%);
   }
   svg.railroad-diagram path.diagram-text {
   stroke-width: 3;
   stroke: black;
   fill: white;
   cursor: help;
   }
   svg.railroad-diagram g.diagram-text:hover path.diagram-text {
   fill: #eee;
   }
   input[type=checkbox]:checked + div,
   input[type=checkbox]:checked + small + div {
   display: none;
   }
   .homeLink{
   background-color: #E4F5F8;
   border:1px solid #C0DEED; 
   text-decoration:none; 
   }
   header,
   section,
   aside,
   nav,
   footer {
   /* margin: 0 1.5% 24px 1.5%; */
   }
   section {
   float: left;
   width: 63%;
   }
   aside {
   float: right;
   width: 30%;
   }
   header{
   color:white;
   background-color:lightgrey;	
   }
   footer {
   clear: both;
   margin-bottom: 0;
   color:white;
   background-color:grey;
   }
   /* ]]> */
   </style>
<g transform="translate(.5 .5)"><path d="M 20 21 v 20 m 10 -20 v 20 m -10 -10 h 20.5"></path><path d="M40 31h10"></path><g><path d="M50 31h0"></path><path d="M682 31h0"></path><g><path d="M50 31h0"></path><path d="M130 31h0"></path><text x="90" y="36" class="comment">ZeroOrMore</text></g><path d="M130 31h10"></path><path d="M140 31h10"></path><g class="terminal"><path d="M150 31h0"></path><path d="M250 31h0"></path><rect x="150" y="20" width="100" height="22" rx="10" ry="10"></rect><a xmlns:xlink="http://www.w3.org/1999/xlink" xlink:href="javascript:doc('Terminal','ZeroOrMore')"><text x="200" y="35">ZeroOrMore</text></a></g><path d="M250 31h10"></path><path d="M260 31h10"></path><g class="terminal"><path d="M270 31h0"></path><path d="M298 31h0"></path><rect x="270" y="20" width="28" height="22" rx="10" ry="10"></rect><a xmlns:xlink="http://www.w3.org/1999/xlink" xlink:href="javascript:doc('Terminal','(')"><text x="284" y="35">(</text></a></g><path d="M298 31h10"></path><path d="M308 31h10"></path><g class="non-terminal"><path d="M318 31h0"></path><path d="M378 31h0"></path><rect x="318" y="20" width="60" height="22"></rect><a xmlns:xlink="http://www.w3.org/1999/xlink" xlink:href="javascript:doc('NonTerminal','Child')"><text x="348" y="35">Child</text></a></g><path d="M378 31h10"></path><path d="M388 31h10"></path><g class="terminal"><path d="M398 31h0"></path><path d="M426 31h0"></path><rect x="398" y="20" width="28" height="22" rx="10" ry="10"></rect><a xmlns:xlink="http://www.w3.org/1999/xlink" xlink:href="javascript:doc('Terminal',',')"><text x="412" y="35">,</text></a></g><path d="M426 31h10"></path><path d="M436 31h10"></path><g class="non-terminal"><path d="M446 31h0"></path><path d="M506 31h0"></path><rect x="446" y="20" width="60" height="22"></rect><a xmlns:xlink="http://www.w3.org/1999/xlink" xlink:href="javascript:doc('NonTerminal','Child')"><text x="476" y="35">Child</text></a></g><path d="M506 31h10"></path><path d="M516 31h10"></path><g class="terminal"><path d="M526 31h0"></path><path d="M554 31h0"></path><rect x="526" y="20" width="28" height="22" rx="10" ry="10"></rect><a xmlns:xlink="http://www.w3.org/1999/xlink" xlink:href="javascript:doc('Terminal',')')"><text x="540" y="35">)</text></a></g><path d="M554 31h10"></path><path d="M564 31h10"></path><g><path d="M574 31h0"></path><path d="M682 31h0"></path><text x="628" y="36" class="comment">END ZeroOrMore</text></g></g><path d="M682 31h10"></path><path d="M 692 31 h 20 m -10 -10 v 20 m 10 -20 v 20"></path></g></svg>
